<svg xmlns:dc="http://purl.org/dc/elements/1.1/" xmlns:cc="http://creativecommons.org/ns#" xmlns:rdf="http://www.w3.org/1999/02/22-rdf-syntax-ns#" xmlns:svg="http://www.w3.org/2000/svg" xmlns="http://www.w3.org/2000/svg" xmlns:sodipodi="http://sodipodi.sourceforge.net/DTD/sodipodi-0.dtd" xmlns:inkscape="http://www.inkscape.org/namespaces/inkscape" width="32px" height="32px" viewBox="0 0 32 32" id="svg2" version="1.1" inkscape:version="0.91 r13725" sodipodi:docname="40.svg">
  <defs id="defs4">
    <pattern y="0" x="0" height="6" width="6" patternUnits="userSpaceOnUse" id="EMFhbasepattern"></pattern>
    <pattern y="0" x="0" height="6" width="6" patternUnits="userSpaceOnUse" id="EMFhbasepattern-8"></pattern>
    <pattern y="0" x="0" height="6" width="6" patternUnits="userSpaceOnUse" id="EMFhbasepattern-81"></pattern>
    <pattern y="0" x="0" height="6" width="6" patternUnits="userSpaceOnUse" id="EMFhbasepattern-3"></pattern>
    <pattern y="0" x="0" height="6" width="6" patternUnits="userSpaceOnUse" id="EMFhbasepattern-7"></pattern>
    <pattern y="0" x="0" height="6" width="6" patternUnits="userSpaceOnUse" id="EMFhbasepattern-6"></pattern>
    <pattern y="0" x="0" height="6" width="6" patternUnits="userSpaceOnUse" id="EMFhbasepattern-65"></pattern>
    <pattern y="0" x="0" height="6" width="6" patternUnits="userSpaceOnUse" id="EMFhbasepattern-79"></pattern>
    <pattern y="0" x="0" height="6" width="6" patternUnits="userSpaceOnUse" id="EMFhbasepattern-0"></pattern>
    <pattern y="0" x="0" height="6" width="6" patternUnits="userSpaceOnUse" id="EMFhbasepattern-9"></pattern>
  </defs>
  <sodipodi:namedview id="base" pagecolor="#ffffff" bordercolor="#666666" borderopacity="1.0" inkscape:pageopacity="0.0" inkscape:pageshadow="2" inkscape:zoom="22.627417" inkscape:cx="7.8110789" inkscape:cy="15.504353" inkscape:document-units="px" inkscape:current-layer="layer1" showgrid="true" units="px" inkscape:snap-bbox="true" inkscape:bbox-nodes="true" inkscape:bbox-paths="true" inkscape:snap-bbox-edge-midpoints="true" inkscape:snap-bbox-midpoints="true" inkscape:window-width="1920" inkscape:window-height="1027" inkscape:window-x="-8" inkscape:window-y="-8" inkscape:window-maximized="1" inkscape:snap-global="true">
    <inkscape:grid type="xygrid" id="grid3336"></inkscape:grid>
  </sodipodi:namedview>
  
  <g inkscape:label="Layer 1" inkscape:groupmode="layer" id="layer1" transform="translate(0,-1020.3622)" style="fill: rgb(31, 206, 109);">
    <path style="color: rgb(0, 0, 0); font: medium sans-serif; text-indent: 0px; text-align: start; text-decoration: none solid rgb(0, 0, 0); letter-spacing: normal; word-spacing: normal; text-transform: none; direction: ltr; writing-mode: lr-tb; baseline-shift: baseline; text-anchor: start; white-space: normal; clip-rule: nonzero; display: inline; overflow: visible; visibility: visible; opacity: 1; isolation: auto; mix-blend-mode: normal; color-interpolation: sRGB; color-interpolation-filters: linearRGB; fill: rgb(31, 206, 109); fill-opacity: 1; fill-rule: evenodd; stroke: none; stroke-width: 1px; stroke-linecap: round; stroke-linejoin: round; stroke-miterlimit: 4; stroke-dasharray: none; stroke-dashoffset: 0; stroke-opacity: 1; color-rendering: auto; image-rendering: auto; shape-rendering: auto; text-rendering: auto;" d="M 2.4980469 1.9882812 A 0.50005 0.50005 0 0 0 2.0058594 2.4941406 L 2.0058594 21.472656 A 0.50022217 0.50022217 0 0 0 2.0058594 21.521484 L 2.0058594 29.363281 A 0.50004997 0.50004997 0 0 0 2.1484375 29.861328 A 0.50005 0.50005 0 0 0 2.6367188 29.996094 L 29.505859 29.996094 A 0.50004997 0.50004997 0 1 0 29.505859 28.996094 L 26.005859 28.996094 L 26.005859 15.496094 A 0.50004994 0.50004994 0 0 0 25.505859 14.996094 L 22.505859 14.996094 A 0.50004994 0.50004994 0 0 0 22.005859 15.496094 L 22.005859 28.996094 L 20.005859 28.996094 L 20.005859 19.496094 A 0.50004997 0.50004997 0 0 0 19.505859 18.996094 L 16.505859 18.996094 A 0.50004997 0.50004997 0 0 0 16.005859 19.496094 L 16.005859 28.996094 L 14.005859 28.996094 L 14.005859 17.496094 A 0.50004997 0.50004997 0 0 0 13.505859 16.996094 L 10.505859 16.996094 A 0.50004997 0.50004997 0 0 0 10.005859 17.496094 L 10.005859 28.996094 L 8.0058594 28.996094 L 8.0058594 22.496094 A 0.50005 0.50005 0 0 0 7.5058594 21.996094 L 4.5058594 21.996094 A 0.50005 0.50005 0 0 0 4.0058594 22.496094 L 4.0058594 28.996094 L 3.0058594 28.996094 L 3.0058594 21.720703 L 12.173828 13.644531 L 16.347656 17.089844 A 0.50004997 0.50004997 0 0 0 17.005859 17.068359 L 25.005859 9.640625 L 25.005859 10.496094 A 0.50005 0.50005 0 1 0 26.005859 10.496094 L 26.005859 8.5585938 A 0.50004997 0.50004997 0 0 0 25.513672 7.9902344 L 25.513672 7.9921875 A 0.50004997 0.50004997 0 0 0 25.447266 7.9960938 L 23.505859 7.9960938 A 0.50005 0.50005 0 1 0 23.505859 8.9960938 L 24.232422 8.9960938 L 16.646484 16.041016 L 12.482422 12.601562 A 0.50004997 0.50004997 0 0 0 11.833984 12.613281 L 3.0058594 20.388672 L 3.0058594 2.4941406 A 0.50005 0.50005 0 0 0 2.4980469 1.9882812 z M 23.005859 15.996094 L 25.005859 15.996094 L 25.005859 28.996094 L 23.005859 28.996094 L 23.005859 15.996094 z M 11.005859 17.996094 L 13.005859 17.996094 L 13.005859 28.996094 L 11.005859 28.996094 L 11.005859 17.996094 z M 17.005859 19.996094 L 19.005859 19.996094 L 19.005859 28.996094 L 17.005859 28.996094 L 17.005859 19.996094 z M 5.0058594 22.996094 L 7.0058594 22.996094 L 7.0058594 28.996094 L 5.0058594 28.996094 L 5.0058594 22.996094 z " transform="translate(0,1020.3622)" id="path6810"></path>
  </g>

	
	
	<metadata>
		<rdf:rdf xmlns:rdf="http://www.w3.org/1999/02/22-rdf-syntax-ns#" xmlns:rdfs="http://www.w3.org/2000/01/rdf-schema#" xmlns:dc="http://purl.org/dc/elements/1.1/">
			<rdf:description about="https://iconscout.com/legal#licenses" dc:title="Financial, Year, Growth, Report, Analytics, Chart, Graph" dc:description="Financial, Year, Growth, Report, Analytics, Chart, Graph" dc:publisher="Iconscout" dc:date="2016-12-14" dc:format="image/svg+xml" dc:language="en">
				<dc:creator>
					<rdf:bag>
						<rdf:li>Jemis Mali</rdf:li>
					</rdf:bag>
				</dc:creator>
			</rdf:description>
		</rdf:rdf>
    </metadata></svg>